{"glyphs":{":":{"x_min":0,"x_max":303,"ha":303,"o":"m 94 51 q 94 78 111 97 q 127 116 152 116 q 177 116 194 97 q 210 78 210 51 q 210 23 194 5 q 177 -14 152 -14 q 127 -14 110 5 q 94 23 94 51 z m 94 369 q 94 396 111 415 q 127 434 152 434 q 177 434 194 416 q 210 397 210 369 q 210 341 194 323 q 177 304 152 304 q 127 304 111 323 q 94 342 94 369 z"},"$":{"x_min":0,"x_max":572,"ha":572,"o":"m 303 33 q 353 38 379 65 q 405 92 405 138 q 405 180 379 209 q 354 239 303 254 z m 259 580 q 214 576 189 551 q 164 525 164 482 q 164 443 187 417 q 210 391 259 375 z m 77 35 l 77 170 l 125 170 q 126 103 160 69 q 193 35 259 33 l 259 270 q 158 301 117 342 q 77 383 77 450 q 77 528 125 576 q 173 623 259 629 l 259 760 l 303 760 l 303 629 q 348 625 389 613 q 430 601 469 581 l 469 453 l 421 453 q 416 510 385 542 q 355 575 303 580 l 303 359 q 411 326 455 284 q 498 242 498 171 q 498 90 447 41 q 396 -8 303 -15 l 303 -147 l 259 -147 l 259 -15 q 217 -14 172 -2 q 126 11 77 35 z"},"?":{"x_min":0,"x_max":482,"ha":482,"o":"m 158 51 q 158 78 175 97 q 192 116 217 116 q 241 116 258 97 q 275 78 275 51 q 275 24 258 5 q 241 -14 217 -14 q 192 -14 175 5 q 158 23 158 51 z m 61 697 q 107 720 149 731 q 191 742 229 742 q 326 742 383 690 q 439 638 439 549 q 439 458 390 400 q 342 343 244 318 l 244 194 l 190 194 l 190 354 q 268 375 307 424 q 346 474 346 550 q 346 617 314 655 q 282 694 227 694 q 177 694 145 662 q 113 630 104 570 l 61 570 z"},"<":{"x_min":0,"x_max":754,"ha":754,"o":"m 659 498 l 203 313 l 659 129 l 659 46 l 95 273 l 95 354 l 659 581 z"},"'":{"x_min":0,"x_max":247,"ha":247,"o":"m 158 729 l 158 458 l 88 458 l 88 729 z"},"=":{"x_min":0,"x_max":754,"ha":754,"o":"m 95 452 l 659 452 l 659 374 l 95 374 z m 95 253 l 659 253 l 659 175 l 95 175 z"},"a":{"x_min":0,"x_max":536,"ha":536,"o":"m 358 163 l 358 273 l 254 273 q 194 273 164 244 q 135 215 135 156 q 135 102 165 70 q 195 38 246 38 q 296 38 327 73 q 358 107 358 163 z m 439 324 l 439 52 l 511 52 l 511 0 l 358 0 l 358 56 q 332 20 296 3 q 261 -14 214 -14 q 136 -14 91 32 q 45 78 45 156 q 45 236 97 281 q 149 325 245 325 l 358 325 l 358 361 q 358 420 326 452 q 293 485 235 485 q 187 485 158 460 q 130 436 123 388 l 81 388 l 81 493 q 123 513 163 523 q 203 533 240 533 q 337 533 388 480 q 439 426 439 324 z"},"L":{"x_min":0,"x_max":598,"ha":598,"o":"m 50 0 l 50 52 l 133 52 l 133 677 l 50 677 l 50 729 l 306 729 l 306 677 l 222 677 l 222 60 l 522 60 l 522 182 l 576 182 l 576 0 z"},"3":{"x_min":0,"x_max":572,"ha":572,"o":"m 87 698 q 139 720 186 731 q 233 742 274 742 q 371 742 425 696 q 479 650 479 568 q 479 502 442 458 q 404 414 336 398 q 417 385 461 333 q 506 280 506 197 q 506 95 444 40 q 382 -14 266 -14 q 215 -14 166 -2 q 117 10 68 35 l 68 177 l 118 177 q 122 106 160 70 q 199 34 268 34 q 335 34 374 77 q 413 121 413 196 q 413 282 373 326 q 333 370 256 370 l 214 370 l 214 420 l 236 420 q 313 420 351 455 q 390 491 390 562 q 390 626 358 660 q 327 694 267 694 q 208 694 175 663 q 143 631 137 570 l 87 570 z"},";":{"x_min":0,"x_max":303,"ha":303,"o":"m 33 -97 q 74 -63 93 -18 q 112 28 112 93 l 112 111 l 199 111 q 195 27 164 -32 q 132 -92 68 -136 z m 95 369 q 95 396 112 415 q 129 434 154 434 q 178 434 195 415 q 212 396 212 369 q 212 342 195 323 q 178 304 154 304 q 129 304 112 323 q 95 342 95 369 z"},"J":{"x_min":0,"x_max":360,"ha":360,"o":"m -75 -175 l -75 -60 l -25 -60 q -24 -108 -4 -132 q 15 -156 54 -156 q 106 -156 127 -119 q 147 -83 147 24 l 147 677 l 45 677 l 45 729 l 320 729 l 320 677 l 236 677 l 236 20 q 236 -101 193 -154 q 149 -208 53 -208 q 21 -208 -11 -200 q -43 -191 -75 -175 z"},"V":{"x_min":0,"x_max":650,"ha":650,"o":"m 157 677 l 351 117 l 544 677 l 471 677 l 471 729 l 663 729 l 663 677 l 600 677 l 365 0 l 290 0 l 57 677 l -9 677 l -9 729 l 230 729 l 230 677 z"},"\"":{"x_min":0,"x_max":414,"ha":414,"o":"m 158 729 l 158 458 l 88 458 l 88 729 z m 326 729 l 326 458 l 256 458 l 256 729 z"},"7":{"x_min":0,"x_max":572,"ha":572,"o":"m 508 679 l 251 0 l 186 0 l 430 649 l 127 649 l 127 559 l 76 559 l 76 729 l 508 729 z"},"S":{"x_min":0,"x_max":616,"ha":616,"o":"m 83 35 l 83 201 l 134 201 q 136 118 177 78 q 218 38 302 38 q 380 38 422 73 q 463 107 463 173 q 463 226 438 254 q 413 282 333 309 l 247 338 q 152 370 114 417 q 76 464 76 547 q 76 640 135 691 q 194 742 301 742 q 347 742 402 731 q 456 720 518 699 l 518 544 l 468 544 q 460 621 422 656 q 383 690 303 690 q 234 690 198 658 q 161 627 161 567 q 161 515 188 485 q 216 455 304 426 l 385 399 q 475 369 513 323 q 551 277 551 199 q 551 93 490 40 q 429 -14 308 -14 q 253 -14 198 -2 q 142 10 83 35 z"},"}":{"x_min":0,"x_max":572,"ha":572,"o":"m 112 -112 l 143 -112 q 205 -112 223 -91 q 242 -69 242 0 l 242 140 q 242 217 264 250 q 285 282 343 299 q 286 313 264 347 q 242 380 242 457 l 242 597 q 242 667 223 688 q 205 709 143 709 l 112 709 l 112 760 l 140 760 q 250 760 286 724 q 323 688 323 580 l 323 454 q 323 381 347 353 q 371 324 433 324 l 460 324 l 460 273 l 433 273 q 371 273 347 245 q 323 216 323 143 l 323 17 q 323 -91 286 -127 q 250 -163 140 -163 l 112 -163 z"},"Z":{"x_min":0,"x_max":625,"ha":625,"o":"m 41 0 l 41 35 l 449 669 l 110 669 l 110 560 l 56 560 l 56 729 l 574 729 l 574 694 l 166 60 l 537 60 l 537 162 l 590 162 l 590 0 z"},"x":{"x_min":0,"x_max":507,"ha":507,"o":"m 262 317 l 360 467 l 297 467 l 297 519 l 477 519 l 477 467 l 415 467 l 290 275 l 436 52 l 497 52 l 497 0 l 281 0 l 281 52 l 340 52 l 239 207 l 137 52 l 197 52 l 197 0 l 20 0 l 20 52 l 82 52 l 210 249 l 68 467 l 11 467 l 11 519 l 220 519 l 220 467 l 164 467 z"},")":{"x_min":0,"x_max":351,"ha":351,"o":"m 63 -156 l 63 -108 q 131 -56 161 38 q 191 132 191 302 q 191 472 161 566 q 131 660 63 712 l 63 760 q 171 707 225 591 q 280 476 280 302 q 280 128 225 13 q 171 -103 63 -156 z"},"&":{"x_min":0,"x_max":801,"ha":801,"o":"m 486 113 l 230 412 q 192 374 173 330 q 154 286 154 236 q 154 155 204 100 q 255 45 331 45 q 375 45 415 62 q 455 80 486 113 z m 758 0 l 582 0 l 522 71 q 476 28 424 7 q 371 -14 311 -14 q 197 -14 131 50 q 64 115 64 225 q 64 290 98 346 q 132 403 200 452 q 178 482 167 511 q 156 541 156 573 q 156 651 207 697 q 257 742 344 742 q 373 742 412 734 q 452 726 502 709 l 502 583 l 453 583 q 446 635 418 663 q 390 690 342 690 q 297 690 269 662 q 240 635 240 591 q 240 561 255 531 q 271 502 318 447 l 544 181 q 575 220 592 265 q 609 311 614 362 l 535 362 l 535 414 l 743 414 l 743 362 l 667 362 q 660 298 638 243 q 616 188 580 141 l 655 52 l 758 52 z"},"_":{"x_min":0,"x_max":450,"ha":450,"o":"m 450 -197 l 450 -236 l 0 -236 l 0 -197 z"},"v":{"x_min":0,"x_max":508,"ha":508,"o":"m 223 0 l 51 467 l -2 467 l -2 519 l 213 519 l 213 467 l 138 467 l 270 110 l 401 467 l 331 467 l 331 519 l 506 519 l 506 467 l 454 467 l 282 0 z"},"O":{"x_min":0,"x_max":738,"ha":738,"o":"m 369 38 q 477 38 532 120 q 587 203 587 364 q 587 525 532 608 q 477 690 369 690 q 261 690 206 608 q 151 525 151 364 q 151 203 206 120 q 261 38 369 38 z m 369 -14 q 302 -14 246 10 q 190 35 147 82 q 99 137 75 206 q 51 275 51 364 q 51 452 75 522 q 99 591 147 646 q 191 694 246 718 q 301 742 369 742 q 512 742 600 638 q 688 534 688 364 q 688 276 664 206 q 640 136 590 82 q 547 34 492 10 q 437 -14 369 -14 z"},"(":{"x_min":0,"x_max":351,"ha":351,"o":"m 287 -156 q 180 -103 126 13 q 71 128 71 302 q 71 476 126 591 q 180 707 287 760 l 287 712 q 219 660 190 566 q 160 472 160 302 q 160 132 190 38 q 219 -56 287 -108 z"},"C":{"x_min":0,"x_max":688,"ha":688,"o":"m 635 193 q 605 91 537 38 q 469 -14 364 -14 q 300 -14 245 10 q 190 35 147 82 q 99 137 75 206 q 51 276 51 364 q 51 534 139 638 q 227 742 372 742 q 425 742 486 727 q 547 711 617 679 l 617 511 l 567 511 q 551 603 502 646 q 453 690 364 690 q 259 690 205 607 q 151 524 151 364 q 151 204 205 121 q 259 38 364 38 q 438 38 485 77 q 533 116 554 193 z"},"W":{"x_min":0,"x_max":925,"ha":925,"o":"m 686 0 l 614 0 l 464 593 l 313 0 l 241 0 l 69 677 l 4 677 l 4 729 l 244 729 l 244 677 l 162 677 l 299 138 l 448 729 l 520 729 l 671 132 l 809 677 l 733 677 l 733 729 l 922 729 l 922 677 l 858 677 z"},"A":{"x_min":0,"x_max":650,"ha":650,"o":"m 181 264 l 421 264 l 301 611 z m -5 0 l -5 52 l 53 52 l 287 729 l 360 729 l 595 52 l 659 52 l 659 0 l 420 0 l 420 52 l 494 52 l 438 212 l 163 212 l 108 52 l 180 52 l 180 0 z"},"f":{"x_min":0,"x_max":333,"ha":333,"o":"m 387 637 l 345 637 q 344 674 326 693 q 308 712 273 712 q 228 712 209 684 q 191 657 191 586 l 191 519 l 321 519 l 321 467 l 191 467 l 191 52 l 294 52 l 294 0 l 33 0 l 33 52 l 110 52 l 110 467 l 33 467 l 33 519 l 110 519 l 110 584 q 110 671 151 715 q 191 760 270 760 q 299 760 329 754 q 358 748 387 736 z"},"Q":{"x_min":0,"x_max":738,"ha":738,"o":"m 380 -14 q 229 -14 140 89 q 51 191 51 364 q 51 452 75 522 q 99 591 147 646 q 191 694 246 718 q 301 742 369 742 q 512 742 600 638 q 688 534 688 364 q 688 219 622 121 q 556 22 440 -6 q 464 -39 498 -54 q 532 -70 580 -70 l 593 -70 l 593 -160 q 519 -156 466 -120 q 413 -83 380 -14 z m 369 38 q 477 38 532 120 q 587 203 587 364 q 587 525 532 608 q 477 690 369 690 q 261 690 206 608 q 151 525 151 364 q 151 203 206 120 q 261 38 369 38 z"},"w":{"x_min":0,"x_max":770,"ha":770,"o":"m 432 519 l 552 114 l 657 467 l 589 467 l 589 519 l 758 519 l 758 467 l 707 467 l 568 0 l 500 0 l 385 388 l 270 0 l 205 0 l 67 467 l 15 467 l 15 519 l 226 519 l 226 467 l 150 467 l 255 114 l 375 519 z"},"-":{"x_min":0,"x_max":304,"ha":304,"o":"m 40 306 l 265 306 l 265 230 l 40 230 z"},"E":{"x_min":0,"x_max":657,"ha":657,"o":"m 50 0 l 50 52 l 133 52 l 133 677 l 50 677 l 50 729 l 578 729 l 578 567 l 524 567 l 524 669 l 222 669 l 222 425 l 438 425 l 438 516 l 491 516 l 491 274 l 438 274 l 438 365 l 222 365 l 222 60 l 531 60 l 531 162 l 585 162 l 585 0 z"},"s":{"x_min":0,"x_max":461,"ha":461,"o":"m 51 29 l 51 150 l 97 150 q 99 92 130 63 q 161 34 222 34 q 276 34 304 57 q 333 80 333 123 q 333 157 312 178 q 292 199 224 223 l 166 245 q 105 267 78 299 q 51 331 51 381 q 51 452 98 493 q 146 533 229 533 q 266 533 306 522 q 347 512 391 491 l 391 378 l 344 378 q 342 428 312 457 q 283 485 231 485 q 180 485 154 465 q 128 445 128 405 q 128 372 148 352 q 167 333 227 312 l 291 290 q 357 267 386 233 q 416 198 416 144 q 416 70 365 28 q 314 -14 225 -14 q 180 -14 137 -3 q 94 7 51 29 z"},">":{"x_min":0,"x_max":754,"ha":754,"o":"m 95 498 l 95 581 l 659 354 l 659 273 l 95 46 l 95 129 l 552 313 z"},"l":{"x_min":0,"x_max":288,"ha":288,"o":"m 185 52 l 261 52 l 261 0 l 26 0 l 26 52 l 104 52 l 104 708 l 26 708 l 26 760 l 185 760 z"},"8":{"x_min":0,"x_max":572,"ha":572,"o":"m 419 199 q 419 277 385 321 q 350 364 286 364 q 223 364 188 321 q 153 277 153 199 q 153 121 188 77 q 223 34 286 34 q 350 34 385 77 q 419 121 419 199 z m 401 553 q 401 620 371 657 q 341 694 286 694 q 232 694 201 657 q 171 620 171 553 q 171 486 201 449 q 232 412 286 412 q 341 412 371 449 q 401 486 401 553 z m 354 388 q 429 377 470 327 q 512 277 512 199 q 512 97 453 41 q 395 -14 286 -14 q 178 -14 119 41 q 60 97 60 199 q 60 277 102 327 q 144 377 219 388 q 152 401 117 444 q 82 487 82 553 q 82 641 136 692 q 191 742 286 742 q 381 742 436 692 q 490 641 490 553 q 490 487 455 444 q 420 401 354 388 z"},"\\":{"x_min":0,"x_max":303,"ha":303,"o":"m 70 729 l 303 -93 l 233 -93 l 0 729 z"},"e":{"x_min":0,"x_max":532,"ha":532,"o":"m 488 250 l 139 250 l 139 246 q 139 141 175 88 q 210 34 280 34 q 333 34 367 65 q 401 96 415 157 l 480 157 q 460 72 408 29 q 356 -14 271 -14 q 169 -14 107 61 q 45 136 45 260 q 45 383 106 458 q 167 533 266 533 q 372 533 429 461 q 485 388 488 250 z m 393 302 q 390 393 358 439 q 326 485 266 485 q 210 485 178 438 q 146 392 139 302 z"},"b":{"x_min":0,"x_max":576,"ha":576,"o":"m 104 52 l 104 708 l 26 708 l 26 760 l 185 760 l 185 438 q 208 487 245 510 q 282 533 336 533 q 422 533 476 458 q 531 382 531 260 q 531 138 476 62 q 422 -14 336 -14 q 282 -14 245 9 q 208 32 185 81 l 185 0 l 26 0 l 26 52 z m 185 234 q 185 140 217 91 q 249 42 311 42 q 373 42 405 97 q 437 152 437 260 q 437 368 405 422 q 373 477 311 477 q 249 477 217 428 q 185 378 185 285 z"},"%":{"x_min":0,"x_max":855,"ha":855,"o":"m 202 697 q 163 697 141 656 q 120 616 120 543 q 120 471 142 430 q 164 389 202 389 q 239 389 261 430 q 283 471 283 543 q 283 615 261 656 q 239 697 202 697 z m 654 339 q 616 339 594 298 q 573 257 573 184 q 573 112 595 72 q 617 31 654 31 q 692 31 714 72 q 735 112 735 184 q 735 256 714 298 q 692 339 654 339 z m 654 383 q 724 383 765 329 q 806 275 806 184 q 806 93 764 39 q 723 -14 654 -14 q 584 -14 543 39 q 502 93 502 184 q 502 276 543 329 q 584 383 654 383 z m 600 742 l 666 742 l 256 -14 l 189 -14 z m 201 742 q 271 742 312 689 q 353 635 353 544 q 353 452 312 398 q 271 345 201 345 q 131 345 90 399 q 50 452 50 544 q 50 635 91 688 q 131 742 201 742 z"},"m":{"x_min":0,"x_max":853,"ha":853,"o":"m 466 418 q 490 475 526 504 q 562 533 610 533 q 684 533 720 483 q 756 432 756 330 l 756 52 l 829 52 l 829 0 l 604 0 l 604 52 l 675 52 l 675 320 q 675 399 654 433 q 633 467 584 467 q 530 467 501 421 q 473 376 473 289 l 473 52 l 543 52 l 543 0 l 322 0 l 322 52 l 393 52 l 393 323 q 393 401 371 434 q 350 467 301 467 q 248 467 219 421 q 191 376 191 289 l 191 52 l 261 52 l 261 0 l 37 0 l 37 52 l 110 52 l 110 468 l 33 468 l 33 519 l 191 519 l 191 427 q 213 479 248 506 q 283 533 327 533 q 381 533 417 503 q 454 473 466 418 z"},"#":{"x_min":0,"x_max":754,"ha":754,"o":"m 458 440 l 334 440 l 297 277 l 422 277 z m 396 718 l 351 515 l 475 515 l 521 718 l 596 718 l 550 515 l 685 515 l 685 440 l 533 440 l 497 277 l 635 277 l 635 202 l 480 202 l 435 0 l 359 0 l 405 202 l 281 202 l 235 0 l 160 0 l 205 202 l 69 202 l 69 277 l 222 277 l 258 440 l 120 440 l 120 515 l 275 515 l 321 718 z"},",":{"x_min":0,"x_max":286,"ha":286,"o":"m 33 -97 q 74 -63 93 -18 q 112 28 112 93 l 112 111 l 199 111 q 195 27 164 -32 q 132 -92 68 -136 z"},"n":{"x_min":0,"x_max":580,"ha":580,"o":"m 37 0 l 37 52 l 110 52 l 110 467 l 33 467 l 33 519 l 191 519 l 191 427 q 213 479 249 506 q 285 533 332 533 q 410 533 446 484 q 482 435 482 330 l 482 52 l 555 52 l 555 0 l 332 0 l 332 52 l 401 52 l 401 302 q 401 397 380 432 q 359 468 306 468 q 250 468 220 422 q 191 376 191 289 l 191 52 l 261 52 l 261 0 z"},"h":{"x_min":0,"x_max":580,"ha":580,"o":"m 37 0 l 37 52 l 110 52 l 110 708 l 33 708 l 33 760 l 191 760 l 191 427 q 213 479 249 506 q 285 533 332 533 q 410 533 446 484 q 482 435 482 330 l 482 52 l 555 52 l 555 0 l 332 0 l 332 52 l 401 52 l 401 302 q 401 397 380 432 q 359 467 306 467 q 250 467 220 421 q 191 376 191 289 l 191 52 l 261 52 l 261 0 z"},"z":{"x_min":0,"x_max":474,"ha":474,"o":"m 36 0 l 36 42 l 329 467 l 97 467 l 97 377 l 51 377 l 51 519 l 433 519 l 433 477 l 140 52 l 394 52 l 394 146 l 441 146 l 441 0 z"},"B":{"x_min":0,"x_max":661,"ha":661,"o":"m 222 52 l 354 52 q 433 52 469 90 q 506 128 506 211 q 506 293 469 331 q 433 369 354 369 l 222 369 z m 222 421 l 334 421 q 406 421 439 452 q 473 482 473 549 q 473 616 439 646 q 406 677 334 677 l 222 677 z m 50 0 l 50 52 l 133 52 l 133 677 l 50 677 l 50 729 l 374 729 q 473 729 523 684 q 573 639 573 549 q 573 484 538 445 q 503 407 437 398 q 520 386 563 339 q 606 291 606 211 q 606 103 545 51 q 483 0 353 0 z"},"K":{"x_min":0,"x_max":672,"ha":672,"o":"m 50 0 l 50 52 l 133 52 l 133 677 l 50 677 l 50 729 l 306 729 l 306 677 l 222 677 l 222 401 l 505 677 l 434 677 l 434 729 l 652 729 l 652 677 l 578 677 l 296 402 l 611 52 l 686 52 l 686 0 l 534 0 l 222 346 l 222 52 l 306 52 l 306 0 z"},"R":{"x_min":0,"x_max":677,"ha":677,"o":"m 431 362 q 462 353 484 330 q 506 308 524 268 l 619 52 l 699 52 l 699 0 l 544 0 l 442 232 q 413 299 388 319 q 363 339 320 339 l 222 339 l 222 52 l 315 52 l 315 0 l 50 0 l 50 52 l 133 52 l 133 677 l 50 677 l 50 729 l 382 729 q 478 729 530 678 q 582 627 582 534 q 582 459 544 416 q 506 373 431 362 z m 222 391 l 352 391 q 418 391 450 426 q 481 461 481 534 q 481 607 450 642 q 418 677 352 677 l 222 677 z"},"T":{"x_min":0,"x_max":600,"ha":600,"o":"m 172 0 l 172 52 l 256 52 l 256 671 l 63 671 l 63 557 l 9 557 l 9 729 l 591 729 l 591 557 l 538 557 l 538 671 l 345 671 l 345 52 l 429 52 l 429 0 z"},"P":{"x_min":0,"x_max":605,"ha":605,"o":"m 222 371 l 338 371 q 404 371 438 410 q 473 450 473 524 q 473 599 438 638 q 404 677 338 677 l 222 677 z m 50 0 l 50 52 l 133 52 l 133 677 l 50 677 l 50 729 l 360 729 q 458 729 516 674 q 573 618 573 524 q 573 430 516 375 q 458 319 360 319 l 222 319 l 222 52 l 324 52 l 324 0 z"},"|":{"x_min":0,"x_max":303,"ha":303,"o":"m 187 764 l 187 -236 l 116 -236 l 116 764 z"},"t":{"x_min":0,"x_max":361,"ha":361,"o":"m 97 467 l 26 467 l 26 519 l 97 519 l 97 680 l 178 680 l 178 519 l 331 519 l 331 467 l 178 467 l 178 137 q 178 71 190 53 q 201 34 232 34 q 264 34 278 55 q 292 76 293 122 l 354 122 q 351 51 320 19 q 289 -14 225 -14 q 155 -14 126 20 q 97 55 97 137 z"},"M":{"x_min":0,"x_max":921,"ha":921,"o":"m 50 0 l 50 52 l 133 52 l 133 677 l 45 677 l 45 729 l 236 729 l 466 210 l 696 729 l 876 729 l 876 677 l 789 677 l 789 52 l 872 52 l 872 0 l 616 0 l 616 52 l 699 52 l 699 615 l 474 107 l 412 107 l 187 615 l 187 52 l 271 52 l 271 0 z"},"g":{"x_min":0,"x_max":576,"ha":576,"o":"m 473 467 l 473 11 q 473 -101 417 -161 q 362 -222 259 -222 q 213 -222 171 -213 q 129 -204 90 -185 l 90 -76 l 132 -76 q 140 -127 170 -150 q 199 -174 254 -174 q 325 -174 358 -129 q 392 -84 392 11 l 392 81 q 368 32 331 9 q 294 -14 240 -14 q 154 -14 100 62 q 45 138 45 260 q 45 382 99 458 q 154 533 240 533 q 294 533 331 510 q 368 487 392 438 l 392 519 l 550 519 l 550 467 z m 392 285 q 392 378 359 428 q 327 477 266 477 q 203 477 171 422 q 139 368 139 260 q 139 152 171 97 q 203 42 266 42 q 327 42 359 91 q 392 140 392 234 z"},"j":{"x_min":0,"x_max":279,"ha":279,"o":"m 90 680 q 90 703 105 719 q 120 736 141 736 q 161 736 176 719 q 190 703 190 680 q 190 657 176 641 q 162 625 141 625 q 120 625 105 641 q 90 657 90 680 z m 110 467 l 34 467 l 34 519 l 191 519 l 191 -51 q 191 -131 148 -177 q 105 -222 30 -222 q -1 -222 -30 -214 q -59 -206 -86 -190 l -86 -83 l -44 -83 q -42 -130 -23 -152 q -4 -174 32 -174 q 72 -174 91 -144 q 110 -114 110 -51 z"},"i":{"x_min":0,"x_max":288,"ha":288,"o":"m 87 680 q 87 703 102 719 q 117 736 138 736 q 158 736 172 719 q 187 703 187 680 q 187 657 173 641 q 158 625 138 625 q 117 625 102 641 q 87 657 87 680 z m 191 52 l 267 52 l 267 0 l 33 0 l 33 52 l 110 52 l 110 467 l 33 467 l 33 519 l 191 519 z"},"y":{"x_min":0,"x_max":508,"ha":508,"o":"m 195 -95 l 226 -9 l 51 467 l -2 467 l -2 519 l 213 519 l 213 467 l 138 467 l 270 110 l 401 467 l 331 467 l 331 519 l 506 519 l 506 467 l 454 467 l 240 -117 q 218 -178 191 -200 q 165 -222 116 -222 q 95 -222 73 -218 q 51 -214 29 -207 l 29 -108 l 71 -108 q 73 -141 86 -156 q 99 -170 125 -170 q 149 -170 164 -155 q 178 -140 195 -95 z"},"@":{"x_min":0,"x_max":900,"ha":900,"o":"m 569 121 q 543 81 510 62 q 478 42 438 42 q 360 42 312 103 q 265 164 265 262 q 265 360 312 421 q 360 482 438 482 q 478 482 510 462 q 543 443 569 403 l 569 472 l 637 472 l 637 95 q 712 113 753 174 q 794 235 794 327 q 794 381 780 430 q 765 478 735 519 q 688 584 622 618 q 555 653 476 653 q 437 653 398 644 q 359 634 321 615 q 232 570 183 478 q 134 386 134 265 q 134 184 156 115 q 178 46 220 -4 q 268 -62 333 -93 q 399 -123 475 -123 q 532 -123 581 -104 q 630 -86 672 -49 l 696 -83 q 648 -128 588 -151 q 528 -174 456 -174 q 376 -174 303 -141 q 229 -109 174 -49 q 118 13 89 93 q 60 173 60 265 q 60 355 89 435 q 118 514 174 576 q 230 638 306 671 q 382 704 467 704 q 561 704 639 664 q 716 623 769 547 q 802 499 819 443 q 836 387 836 326 q 836 195 765 119 q 693 43 569 42 z m 569 237 l 569 288 q 569 349 537 387 q 506 425 455 425 q 402 425 373 382 q 343 339 343 262 q 343 185 373 142 q 402 99 456 99 q 506 99 538 137 q 569 176 569 237 z"},".":{"x_min":0,"x_max":286,"ha":286,"o":"m 85 51 q 85 78 102 97 q 118 116 143 116 q 167 116 185 97 q 202 78 202 51 q 202 24 185 5 q 167 -14 143 -14 q 118 -14 102 5 q 85 23 85 51 z"},"p":{"x_min":0,"x_max":576,"ha":576,"o":"m 185 285 l 185 234 q 185 140 217 91 q 249 42 311 42 q 373 42 405 97 q 437 152 437 260 q 437 368 405 422 q 373 477 311 477 q 249 477 217 428 q 185 378 185 285 z m 104 467 l 26 467 l 26 519 l 185 519 l 185 438 q 208 487 245 510 q 282 533 336 533 q 422 533 476 458 q 531 382 531 260 q 531 138 476 62 q 422 -14 336 -14 q 282 -14 245 9 q 208 32 185 81 l 185 -156 l 261 -156 l 261 -208 l 26 -208 l 26 -156 l 104 -156 z"},"X":{"x_min":0,"x_max":641,"ha":641,"o":"m 298 312 l 138 52 l 222 52 l 222 0 l 5 0 l 5 52 l 81 52 l 270 358 l 78 677 l 8 677 l 8 729 l 268 729 l 268 677 l 191 677 l 332 442 l 476 677 l 392 677 l 392 729 l 606 729 l 606 677 l 533 677 l 359 396 l 566 52 l 636 52 l 636 0 l 376 0 l 376 52 l 455 52 z"},"*":{"x_min":0,"x_max":450,"ha":450,"o":"m 436 604 l 264 515 l 436 425 l 402 367 l 249 473 l 255 287 l 195 287 l 201 473 l 48 367 l 15 425 l 187 514 l 15 604 l 48 662 l 201 556 l 195 742 l 255 742 l 249 556 l 402 662 z"},"Y":{"x_min":0,"x_max":594,"ha":594,"o":"m 170 0 l 170 52 l 254 52 l 254 314 l 52 677 l -10 677 l -10 729 l 234 729 l 234 677 l 158 677 l 322 382 l 486 677 l 412 677 l 412 729 l 603 729 l 603 677 l 541 677 l 343 323 l 343 52 l 427 52 l 427 0 z"},"c":{"x_min":0,"x_max":504,"ha":504,"o":"m 463 156 q 446 73 397 29 q 348 -14 271 -14 q 169 -14 107 61 q 45 136 45 260 q 45 384 107 459 q 169 533 271 533 q 315 533 359 522 q 403 510 447 487 l 447 354 l 400 354 q 391 422 360 454 q 329 485 271 485 q 206 485 173 428 q 139 372 139 260 q 139 147 172 91 q 206 34 271 34 q 324 34 355 64 q 386 95 397 156 z"},"!":{"x_min":0,"x_max":361,"ha":361,"o":"m 123 51 q 123 78 139 97 q 156 116 181 116 q 205 116 222 97 q 239 78 239 51 q 239 24 222 5 q 205 -14 181 -14 q 156 -14 139 5 q 123 23 123 51 z m 125 729 l 238 729 l 208 328 l 208 205 l 154 205 l 154 328 z"},"/":{"x_min":0,"x_max":303,"ha":303,"o":"m 233 729 l 303 729 l 70 -93 l 0 -93 z"},"[":{"x_min":0,"x_max":351,"ha":351,"o":"m 77 760 l 282 760 l 282 708 l 161 708 l 161 -80 l 282 -80 l 282 -132 l 77 -132 z"},"6":{"x_min":0,"x_max":572,"ha":572,"o":"m 294 34 q 356 34 390 85 q 423 135 423 230 q 423 325 390 375 q 356 426 294 426 q 231 426 198 377 q 166 328 166 236 q 166 139 199 86 q 232 34 294 34 z m 151 401 q 181 438 219 456 q 257 474 304 474 q 402 474 459 409 q 516 343 516 230 q 516 119 455 52 q 394 -14 291 -14 q 180 -14 120 78 q 60 170 60 341 q 60 532 131 637 q 202 742 331 742 q 365 742 403 735 q 441 728 481 713 l 481 593 l 432 593 q 427 642 398 668 q 370 694 321 694 q 236 694 194 622 q 152 550 151 401 z"},"r":{"x_min":0,"x_max":430,"ha":430,"o":"m 430 520 l 430 390 l 384 390 q 381 429 364 448 q 347 467 314 467 q 254 467 223 421 q 191 375 191 289 l 191 52 l 284 52 l 284 0 l 37 0 l 37 52 l 110 52 l 110 468 l 33 468 l 33 519 l 191 519 l 191 427 q 214 481 252 507 q 289 533 343 533 q 362 533 384 530 q 406 526 430 520 z"},"2":{"x_min":0,"x_max":572,"ha":572,"o":"m 115 555 l 66 555 l 66 685 q 113 713 161 728 q 208 742 254 742 q 356 742 416 687 q 475 632 475 537 q 475 430 341 281 q 330 270 325 264 l 159 80 l 433 80 l 433 170 l 484 170 l 484 0 l 61 0 l 61 53 l 260 274 q 326 347 354 408 q 382 470 382 537 q 382 611 348 652 q 313 694 253 694 q 190 694 156 659 q 121 625 115 555 z"},"{":{"x_min":0,"x_max":572,"ha":572,"o":"m 460 -112 l 460 -163 l 433 -163 q 323 -163 286 -127 q 249 -91 249 17 l 249 143 q 249 216 225 245 q 202 273 139 273 l 112 273 l 112 324 l 139 324 q 202 324 225 353 q 249 381 249 454 l 249 580 q 249 688 286 724 q 323 760 433 760 l 460 760 l 460 709 l 430 709 q 368 709 349 688 q 331 666 331 597 l 331 457 q 331 380 309 347 q 287 313 229 299 q 288 282 309 250 q 331 217 331 140 l 331 0 q 331 -69 349 -90 q 368 -112 430 -112 z"},"9":{"x_min":0,"x_max":572,"ha":572,"o":"m 421 327 q 392 290 353 272 q 315 254 267 254 q 169 254 113 319 q 57 385 57 498 q 57 609 118 676 q 179 742 282 742 q 393 742 452 650 q 512 558 512 387 q 512 196 441 91 q 371 -14 242 -14 q 208 -14 169 -7 q 131 0 91 15 l 91 136 l 140 136 q 146 87 175 61 q 203 34 251 34 q 336 34 378 106 q 420 177 421 327 z m 278 694 q 216 694 183 643 q 149 593 149 498 q 149 403 183 353 q 216 302 278 302 q 341 302 374 351 q 407 400 407 492 q 407 589 374 642 q 340 694 278 694 z"}," ":{"x_min":0,"x_max":286,"ha":286,"o":""},"I":{"x_min":0,"x_max":355,"ha":355,"o":"m 222 52 l 306 52 l 306 0 l 50 0 l 50 52 l 133 52 l 133 677 l 50 677 l 50 729 l 306 729 l 306 677 l 222 677 z"},"H":{"x_min":0,"x_max":785,"ha":785,"o":"m 50 0 l 50 52 l 133 52 l 133 677 l 50 677 l 50 729 l 306 729 l 306 677 l 222 677 l 222 425 l 562 425 l 562 677 l 479 677 l 479 729 l 735 729 l 735 677 l 652 677 l 652 52 l 735 52 l 735 0 l 479 0 l 479 52 l 562 52 l 562 365 l 222 365 l 222 52 l 306 52 l 306 0 z"},"4":{"x_min":0,"x_max":572,"ha":572,"o":"m 314 247 l 314 635 l 90 247 z m 508 0 l 209 0 l 209 52 l 314 52 l 314 195 l 28 195 l 28 248 l 315 742 l 402 742 l 402 247 l 527 247 l 527 195 l 402 195 l 402 52 l 508 52 z"},"~":{"x_min":0,"x_max":754,"ha":754,"o":"m 659 394 l 659 322 q 615 279 575 258 q 536 238 495 238 q 453 238 376 270 l 372 272 q 367 274 357 278 q 292 306 251 306 q 210 306 172 288 q 134 271 95 233 l 95 307 q 139 350 178 369 q 218 389 259 389 q 301 389 378 357 l 382 355 q 387 353 396 349 q 459 321 502 321 q 543 321 582 339 q 620 357 659 394 z"},"D":{"x_min":0,"x_max":721,"ha":721,"o":"m 222 52 l 304 52 q 432 52 500 133 q 569 214 569 365 q 569 517 501 597 q 433 677 304 677 l 222 677 z m 50 0 l 50 52 l 133 52 l 133 677 l 50 677 l 50 729 l 311 729 q 480 729 575 633 q 670 537 670 365 q 670 193 575 97 q 480 0 311 0 z"},"^":{"x_min":0,"x_max":754,"ha":754,"o":"m 420 729 l 659 457 l 591 457 l 377 643 l 163 457 l 95 457 l 334 729 z"},"0":{"x_min":0,"x_max":572,"ha":572,"o":"m 286 34 q 354 34 387 116 q 420 198 420 364 q 420 530 387 612 q 354 694 286 694 q 219 694 185 612 q 152 530 152 364 q 152 198 185 116 q 219 34 286 34 z m 286 -14 q 179 -14 119 85 q 60 185 60 364 q 60 543 119 643 q 179 742 286 742 q 394 742 453 643 q 513 543 513 364 q 513 185 453 85 q 394 -14 286 -14 z"},"F":{"x_min":0,"x_max":624,"ha":624,"o":"m 50 0 l 50 52 l 133 52 l 133 677 l 50 677 l 50 729 l 587 729 l 587 567 l 533 567 l 533 669 l 222 669 l 222 425 l 446 425 l 446 516 l 500 516 l 500 274 l 446 274 l 446 365 l 222 365 l 222 52 l 327 52 l 327 0 z"},"`":{"x_min":0,"x_max":450,"ha":450,"o":"m 161 799 l 275 615 l 224 615 l 75 799 z"},"k":{"x_min":0,"x_max":545,"ha":545,"o":"m 257 0 l 31 0 l 31 52 l 104 52 l 104 708 l 26 708 l 26 760 l 185 760 l 185 265 l 381 467 l 314 467 l 314 519 l 525 519 l 525 467 l 446 467 l 307 324 l 484 52 l 552 52 l 552 0 l 321 0 l 321 52 l 388 52 l 248 265 l 185 199 l 185 52 l 257 52 z"},"u":{"x_min":0,"x_max":580,"ha":580,"o":"m 318 519 l 470 519 l 470 52 l 546 52 l 546 0 l 389 0 l 389 92 q 367 40 331 13 q 295 -14 248 -14 q 170 -14 134 35 q 97 84 97 189 l 97 467 l 24 467 l 24 519 l 178 519 l 178 217 q 178 122 199 87 q 220 52 274 52 q 330 52 359 98 q 389 144 389 231 l 389 467 l 318 467 z"},"]":{"x_min":0,"x_max":351,"ha":351,"o":"m 274 760 l 274 -132 l 69 -132 l 69 -80 l 190 -80 l 190 708 l 69 708 l 69 760 z"},"U":{"x_min":0,"x_max":758,"ha":758,"o":"m 126 677 l 42 677 l 42 729 l 299 729 l 299 677 l 215 677 l 215 300 q 215 160 256 105 q 297 50 397 50 q 499 50 540 105 q 581 160 581 300 l 581 677 l 497 677 l 497 729 l 718 729 l 718 677 l 635 677 l 635 290 q 635 124 577 55 q 520 -14 381 -14 q 244 -14 185 55 q 126 125 126 290 z"},"o":{"x_min":0,"x_max":542,"ha":542,"o":"m 271 34 q 336 34 369 91 q 402 148 402 260 q 402 371 369 428 q 336 485 271 485 q 206 485 172 428 q 139 371 139 260 q 139 148 173 91 q 206 34 271 34 z m 271 -14 q 169 -14 107 61 q 45 136 45 260 q 45 384 107 458 q 168 533 271 533 q 373 533 435 458 q 497 384 497 260 q 497 136 435 61 q 373 -14 271 -14 z"},"N":{"x_min":0,"x_max":787,"ha":787,"o":"m 44 0 l 44 52 l 132 52 l 132 677 l 44 677 l 44 729 l 212 729 l 605 154 l 605 677 l 518 677 l 518 729 l 748 729 l 748 677 l 660 677 l 660 -14 l 606 -14 l 187 600 l 187 52 l 274 52 l 274 0 z"},"+":{"x_min":0,"x_max":754,"ha":754,"o":"m 412 627 l 412 353 l 659 353 l 659 274 l 412 274 l 412 0 l 342 0 l 342 274 l 95 274 l 95 353 l 342 353 l 342 627 z"},"G":{"x_min":0,"x_max":719,"ha":719,"o":"m 576 511 q 561 603 512 646 q 463 690 376 690 q 263 690 207 609 q 151 528 151 364 q 151 203 209 121 q 266 38 378 38 q 428 38 473 52 q 518 65 559 93 l 559 281 l 436 281 l 436 333 l 648 333 l 648 61 q 590 23 522 5 q 455 -14 378 -14 q 229 -14 140 89 q 51 192 51 364 q 51 537 140 639 q 230 742 381 742 q 438 742 498 728 q 558 713 625 684 l 625 511 z"},"q":{"x_min":0,"x_max":576,"ha":576,"o":"m 473 467 l 473 -156 l 550 -156 l 550 -208 l 315 -208 l 315 -156 l 392 -156 l 392 81 q 368 32 331 9 q 294 -14 240 -14 q 154 -14 100 62 q 45 138 45 260 q 45 382 99 458 q 154 533 240 533 q 294 533 331 510 q 368 487 392 438 l 392 519 l 550 519 l 550 467 z m 392 285 q 392 378 359 428 q 327 477 266 477 q 203 477 171 422 q 139 368 139 260 q 139 152 171 97 q 203 42 266 42 q 327 42 359 91 q 392 140 392 234 z"},"d":{"x_min":0,"x_max":576,"ha":576,"o":"m 473 52 l 550 52 l 550 0 l 392 0 l 392 81 q 368 32 331 9 q 294 -14 240 -14 q 154 -14 100 62 q 45 138 45 260 q 45 382 99 458 q 154 533 240 533 q 294 533 331 510 q 368 487 392 438 l 392 708 l 315 708 l 315 760 l 473 760 z m 392 234 l 392 285 q 392 378 359 428 q 327 477 266 477 q 203 477 171 422 q 139 368 139 260 q 139 152 171 97 q 203 42 266 42 q 327 42 359 91 q 392 140 392 234 z"},"1":{"x_min":0,"x_max":572,"ha":572,"o":"m 128 0 l 128 52 l 242 52 l 242 658 l 110 563 l 110 627 l 270 742 l 331 742 l 331 52 l 445 52 l 445 0 z"},"5":{"x_min":0,"x_max":572,"ha":572,"o":"m 453 729 l 453 649 l 152 649 l 152 440 q 175 458 205 466 q 236 475 274 475 q 380 475 441 410 q 503 344 503 231 q 503 115 441 51 q 379 -14 266 -14 q 221 -14 174 -2 q 126 10 77 35 l 77 177 l 126 177 q 130 107 166 71 q 202 34 266 34 q 336 34 373 85 q 411 136 411 231 q 411 326 373 376 q 336 427 266 427 q 227 427 197 411 q 167 396 143 363 l 105 363 l 105 729 z"}}}
